
<svg width="116px" height="35px" viewBox="0 0 116 35" version="1.1" xmlns="http://www.w3.org/2000/svg" xmlns:xlink="http://www.w3.org/1999/xlink">
    <g id="Page-1" stroke="none" stroke-width="1" fill="none" fill-rule="evenodd">
        <g id="Travel-Agency-Landing-Page-UI" transform="translate(-140.000000, -48.000000)">
            <g id="Hero" transform="translate(-420.000000, -149.000000)">
                <g id="Top-Nav" transform="translate(560.919922, 196.000000)">
                    <g id="Logo" transform="translate(0.000000, 1.695984)">
                        <path d="M83.5799561,13.8040161 L91.5799561,21.8040161 L101.579956,14.8040161 L112.079956,16.8040161 L107.579956,31.3040161 L91.5799561,26.3040161 L82.5799561,31.3040161 L73.0799561,29.8040161 L74.0799561,16.8040161 L83.5799561,13.8040161 Z" id="Rectangle-24" fill="#F1A501" fill-rule="nonzero" transform="translate(92.579956, 22.554016) scale(1, -1) translate(-92.579956, -22.554016) "></path>
                        <path d="M0,21.2060013 L6.11800051,20.1020012 L6.11800051,23.092001 C6.14866724,24.7173344 6.56266701,25.944001 7.36000013,26.7720013 C8.18800044,27.5693346 9.27666712,27.9680023 10.6260004,27.9680023 C11.9446665,27.9680023 12.9873338,27.538669 13.7540007,26.6800022 C14.5513347,25.8213356 14.9500017,24.671335 14.9500017,23.2300014 L14.9500017,0.689999342 L21.2980003,0.689999342 L21.2980003,23.2300014 C21.2980003,26.2353349 20.3013338,28.7806678 18.3080006,30.8660011 C16.3146673,32.9513345 13.7693336,33.9940033 10.6719999,33.9940033 C7.4519999,33.9940033 4.86066675,33.0280026 2.89800024,31.0960026 C0.966000199,29.1333358 0,26.5573354 0,23.3680019 L0,21.2060013 Z M24.6427021,22.4940014 C25.9000355,21.3286685 27.52537,20.5926685 29.5187035,20.2860012 L35.0847054,19.4580002 C36.219372,19.304667 36.786705,18.7679996 36.786705,17.8479996 C36.786705,16.989333 36.4493711,16.2840006 35.774704,15.7320004 C35.130704,15.1800011 34.1953707,14.9040012 32.9687042,14.9040012 C31.6807044,14.9040012 30.6533703,15.2566684 29.8867035,15.9620018 C29.1507034,16.6673352 28.7367026,17.5413355 28.6447029,18.5840015 L23.2167034,17.434 C23.4313701,15.471334 24.3973687,13.7386675 26.1147022,12.2360001 C27.8320354,10.7333336 30.1013687,9.98200035 32.9227028,9.98200035 C36.2960358,9.98200035 38.7800353,10.7946666 40.3747025,12.4200001 C41.9693687,14.0146673 42.7667046,16.0693352 42.7667046,18.5840015 L42.7667046,29.7160015 C42.7667046,31.0653348 42.8587052,32.2613342 43.0427055,33.3040009 L37.4307022,33.3040009 C37.277369,32.6293342 37.2007027,31.7246687 37.2007027,30.5900021 C35.7593696,32.8286688 33.5360365,33.9480019 30.5307026,33.9480019 C28.2000358,33.9480019 26.3140368,33.2733351 24.8727036,31.9240017 C23.4620367,30.5746684 22.7567024,28.9800013 22.7567024,27.1400013 C22.7567024,25.208001 23.3853687,23.6593348 24.6427021,22.4940014 Z M35.3607025,28.1980019 C36.3113688,27.3700018 36.786705,26.0206683 36.786705,24.1500015 L36.786705,23.1380005 L31.6807041,23.920002 C29.8100374,24.1960021 28.8747025,25.1466678 28.8747025,26.7720013 C28.8747025,27.5080011 29.1353705,28.1366675 29.6567039,28.6580009 C30.178037,29.1486677 30.8987027,29.394001 31.8187027,29.394001 C33.2600367,29.394001 34.4407025,28.9953355 35.3607025,28.1980019 Z M66.7377319,29.210001 C66.7377319,30.7126676 66.7990708,32.077334 66.9217377,33.3040009 L61.0797348,33.3040009 C60.9264016,32.5373342 60.8497353,31.6633345 60.8497353,30.6820011 C60.3284013,31.6326679 59.5004008,32.3993356 58.3657341,32.9820023 C57.2617346,33.564669 55.9737359,33.8560028 54.5017357,33.8560028 C51.2817357,33.8560028 48.6290691,32.7366679 46.5437355,30.4980011 C44.4890687,28.2286677 43.4617348,25.3766682 43.4617348,21.9420013 C43.4617348,18.5993347 44.4737341,15.7933345 46.4977341,13.5240011 C48.5524011,11.2546678 51.1590672,10.1200008 54.3177338,10.1200008 C57.5684006,10.1200008 59.699735,11.0553342 60.7117348,12.9260006 L60.7117348,0 L66.7377319,0 L66.7377319,29.210001 Z M51.1897354,26.6800022 C52.2324023,27.8146689 53.5817356,28.3820019 55.2377357,28.3820019 C56.8630692,28.3820019 58.1970686,27.7993342 59.2397346,26.6340008 C60.2824016,25.4686674 60.8037338,23.889335 60.8037338,21.8960018 C60.8037338,19.9333353 60.2824016,18.4000019 59.2397346,17.2960014 C58.1970686,16.1613348 56.8630692,15.5940008 55.2377357,15.5940008 C53.6124023,15.5940008 52.2630692,16.1613348 51.1897354,17.2960014 C50.147069,18.4306681 49.6257324,19.9793344 49.6257324,21.9420013 C49.6257324,23.9353346 50.147069,25.5146688 51.1897354,26.6800022 Z M79.860672,28.4280014 C81.4553382,28.4280014 82.8046681,27.8606684 83.9086685,26.7260017 C85.0433352,25.5913351 85.610672,24.0120008 85.610672,21.9880009 C85.610672,19.9640009 85.0433352,18.3846686 83.9086685,17.2500019 C82.8046681,16.1153352 81.4553382,15.5480013 79.860672,15.5480013 C78.2660048,15.5480013 76.9013369,16.1153352 75.7666702,17.2500019 C74.6626703,18.3846686 74.110672,19.9640009 74.110672,21.9880009 C74.110672,24.0120008 74.6626703,25.5913351 75.7666702,26.7260017 C76.9013369,27.8606684 78.2660048,28.4280014 79.860672,28.4280014 Z M79.860672,9.98200035 C83.264672,9.98200035 86.0860028,11.1166673 88.3246689,13.3860006 C90.5940022,15.655334 91.7286682,18.5226669 91.7286682,21.9880009 C91.7286682,25.4533343 90.5940022,28.3206687 88.3246689,30.5900021 C86.0860028,32.8593354 83.264672,33.9940033 79.860672,33.9940033 C76.4566715,33.9940033 73.6200032,32.8593354 71.3506699,30.5900021 C69.1120031,28.3206687 67.9926682,25.4533343 67.9926682,21.9880009 C67.9926682,18.5226669 69.1120031,15.655334 71.3506699,13.3860006 C73.6200032,11.1166673 76.4566715,9.98200035 79.860672,9.98200035 Z M103.043953,28.4280014 C104.638619,28.4280014 105.987949,27.8606684 107.091949,26.7260017 C108.226616,25.5913351 108.793953,24.0120008 108.793953,21.9880009 C108.793953,19.9640009 108.226616,18.3846686 107.091949,17.2500019 C105.987949,16.1153352 104.638619,15.5480013 103.043953,15.5480013 C101.449286,15.5480013 100.084618,16.1153352 98.9499512,17.2500019 C97.8459512,18.3846686 97.2939529,19.9640009 97.2939529,21.9880009 C97.2939529,24.0120008 97.8459512,25.5913351 98.9499512,26.7260017 C100.084618,27.8606684 101.449286,28.4280014 103.043953,28.4280014 Z M103.043953,9.98200035 C106.447953,9.98200035 109.269284,11.1166673 111.50795,13.3860006 C113.777283,15.655334 114.911949,18.5226669 114.911949,21.9880009 C114.911949,25.4533343 113.777283,28.3206687 111.50795,30.5900021 C109.269284,32.8593354 106.447953,33.9940033 103.043953,33.9940033 C99.6399524,33.9940033 96.8032842,32.8593354 94.5339508,30.5900021 C92.295284,28.3206687 91.1759491,25.4533343 91.1759491,21.9880009 C91.1759491,18.5226669 92.295284,15.655334 94.5339508,13.3860006 C96.8032842,11.1166673 99.6399524,9.98200035 103.043953,9.98200035 Z" id="Jadoo" fill="#000000"></path>
                    </g>
                </g>
            </g>
        </g>
    </g>
</svg>
